PathFileType	4	(X/Y/Z)	E:\Qualisys_Data\Carbon_Farble_Plate\Data\Amateur_Runner\S1\T3\S1T3V23_c3d.trc
DataRate	CameraRate	NumFrames	NumMarkers	Units	OrigDataRate	OrigDataStartFrame	OrigNumFrames
200.000000	200.000000	4	39	mm	200.000000	0	296
Frame#	Time	LSHO			RSHO			LICST			RICST			LASIS			LHEEL			RASIS			LTROC			RTROC			SACR			LTH1			LSK4			LTH2			LTH3			RHM5			LSK2			LTH4			RTH1			LTOE			RTH2			RTH3			RTH4			LLEP			RLEP			LSK1			LSK3			RSK1			LHM5			RSK2			LFT1			RSK3			RSK4			LLME			RLME			RTOE			RHEEL			RFT1			RFT2			LFT2			
		X1	Y1	Z1	X2	Y2	Z2	X3	Y3	Z3	X4	Y4	Z4	X5	Y5	Z5	X6	Y6	Z6	X7	Y7	Z7	X8	Y8	Z8	X9	Y9	Z9	X10	Y10	Z10	X11	Y11	Z11	X12	Y12	Z12	X13	Y13	Z13	X14	Y14	Z14	X15	Y15	Z15	X16	Y16	Z16	X17	Y17	Z17	X18	Y18	Z18	X19	Y19	Z19	X20	Y20	Z20	X21	Y21	Z21	X22	Y22	Z22	X23	Y23	Z23	X24	Y24	Z24	X25	Y25	Z25	X26	Y26	Z26	X27	Y27	Z27	X28	Y28	Z28	X29	Y29	Z29	X30	Y30	Z30	X31	Y31	Z31	X32	Y32	Z32	X33	Y33	Z33	X34	Y34	Z34	X35	Y35	Z35	X36	Y36	Z36	X37	Y37	Z37	X38	Y38	Z38	X39	Y39	Z39	

1	0	-3051.69189453125	1547.151123046875	-573.1542358398438	-3139.79638671875	1527.81982421875	-264.0472106933594	-3085.07080078125	1064.075073242188	-576.6862182617188	-3111.56005859375	1083.429809570312	-282.2380065917969	-3046.5595703125	1021.159973144531	-549.3917846679688	-3683.15283203125	373.1830749511719	-507.7373046875	-3072.774169921875	1036.953125	-287.7863159179688	-3173.863525390625	959.063720703125	-600.5802001953125	-3168.51318359375	945.6943969726562	-259.7571411132812	-3216.531982421875	1094.06201171875	-435.4175415039062	-3111.074951171875	774.9493408203125	-562.987548828125	-3562.865234375	444.7956237792969	-530.4042358398438	-3183.0771484375	797.7080688476562	-598.2047119140625	-3149.53076171875	679.0311279296875	-546.5510864257812	-2706.651611328125	186.0386352539062	-261.5521545410156	-3475.851318359375	491.697998046875	-564.9218139648438	-3225.234375	707.0075073242188	-574.66552734375	-2992.476806640625	881.849609375	-275.2486572265625	-3601.171630859375	137.5949401855469	-473.8415832519531	-3057.640380859375	838.5352172851562	-251.4440307617188	-2937.580322265625	795.8197631835938	-274.6795654296875	-3005.86962890625	753.0093994140625	-264.8729553222656	-3268.044921875	559.6665649414062	-540.9577026367188	-2905.0830078125	617.3683471679688	-291.3195190429688	-3433.849853515625	420.5035095214844	-549.0169067382812	-3523.9873046875	374.9544982910156	-547.1094970703125	-2874.265380859375	427.218505859375	-267.08837890625	-3645.77978515625	184.2407531738281	-541.01953125	-2953.223876953125	412.6319274902344	-288.1054077148438	-3706.305908203125	358.2794189453125	-475.1628723144531	-2854.541259765625	329.0174865722656	-280.7005310058594	-2928.92138671875	317.7323608398438	-311.4862365722656	-3638.116943359375	331.0999145507812	-545.4630737304688	-2853.164794921875	189.3486328125	-285.8799743652344	-2659.77197265625	223.9442138671875	-330.4057922363281	-2892.37646484375	124.1813354492188	-333.7039184570312	-2869.36767578125	104.7473754882812	-364.1465759277344	-2880.5966796875	100.7490386962891	-312.3823547363281	-3712.27197265625	352.1087646484375	-526.9388427734375
2	0.005	-3030.0693359375	1547.209350585938	-571.6096801757812	-3118.468994140625	1526.922607421875	-262.5110473632812	-3063.28955078125	1064.968872070312	-576.5026245117188	-3090.035400390625	1083.302124023438	-281.5848388671875	-3024.36083984375	1021.827331542969	-549.3534545898438	-3662.520751953125	382.4799499511719	-506.3656005859375	-3050.521484375	1036.331909179688	-287.4604797363281	-3150.799072265625	958.9630737304688	-600.1283569335938	-3147.845703125	945.0459594726562	-260.5276184082031	-3194.90673828125	1093.927612304688	-435.6487121582031	-3086.944580078125	775.1757202148438	-561.4507446289062	-3540.86767578125	450.8995971679688	-529.2274169921875	-3158.659423828125	796.9765625	-597.31884765625	-3125.08935546875	679.0872192382812	-545.2122802734375	-2677.52490234375	187.9506378173828	-260.4802856445312	-3452.625732421875	495.7101135253906	-563.703369140625	-3200.511474609375	706.6531982421875	-574.6259155273438	-2973.37939453125	876.9598388671875	-274.9273376464844	-3585.289794921875	145.2133941650391	-473.6336975097656	-3039.010986328125	834.445556640625	-249.9368896484375	-2919.838134765625	789.6439208984375	-274.2964477539062	-2988.84814453125	748.1043701171875	-262.8453369140625	-3242.631591796875	558.1591796875	-540.1558837890625	-2888.49560546875	613.04345703125	-291.8339538574219	-3412.319091796875	424.0077209472656	-547.9768676757812	-3504.647705078125	381.1652221679688	-546.85107421875	-2852.634033203125	424.4759521484375	-267.0803527832031	-3629.43115234375	193.3187255859375	-539.8547973632812	-2931.194091796875	408.4957580566406	-287.1709899902344	-3685.67822265625	369.3162841796875	-473.4793701171875	-2829.30419921875	327.7551879882812	-279.5672607421875	-2902.669677734375	313.4674072265625	-309.6003723144531	-3619.56298828125	340.8792114257812	-544.3062133789062	-2824.6015625	187.4702758789062	-284.0982971191406	-2632.302001953125	227.2193603515625	-329.9961853027344	-2862.564697265625	120.7377014160156	-332.0315856933594	-2838.4521484375	102.5486831665039	-362.3397827148438	-2850.11279296875	98.36949157714844	-310.6021423339844	-3692.316162109375	362.9660339355469	-525.12109375
3	0.01	-3008.525634765625	1548.011474609375	-569.9417114257812	-3096.2509765625	1526.24951171875	-260.7808532714844	-3040.71875	1064.95166015625	-575.7267456054688	-3068.416015625	1082.462036132812	-281.6536560058594	-3002.056640625	1022.361267089844	-548.537841796875	-3642.06640625	392.7709045410156	-505.0621643066406	-3028.63427734375	1037.115844726562	-287.1351928710938	-3127.75390625	958.7189331054688	-600.1165161132812	-3125.88671875	943.911376953125	-261.0328979492188	-3172.67041015625	1092.911010742188	-434.5587158203125	-3062.6669921875	774.8311157226562	-559.9030151367188	-3517.47265625	456.9150390625	-528.14306640625	-3134.35693359375	796.2308959960938	-596.4124145507812	-3099.858642578125	678.3809814453125	-544.1436767578125	-2649.686279296875	189.8697967529297	-259.3110656738281	-3427.669921875	499.37939453125	-561.92626953125	-3175.4970703125	705.4966430664062	-573.715087890625	-2954.7119140625	871.4978637695312	-273.9032287597656	-3569.79541015625	153.7125854492188	-470.2095336914062	-3021.23291015625	831.369873046875	-248.6270446777344	-2901.708740234375	783.2547607421875	-273.7224731445312	-2971.783447265625	743.5350952148438	-261.4846801757812	-3217.078369140625	556.8988647460938	-539.6115112304688	-2872.4677734375	609.2230834960938	-292.6394348144531	-3390.673095703125	426.7464599609375	-547.2367553710938	-3485.063232421875	387.1796569824219	-545.14453125	-2829.837158203125	422.5421752929688	-265.7795104980469	-3612.4853515625	202.1156311035156	-537.4141235351562	-2909.08349609375	405.1192932128906	-286.8457946777344	-3665.049072265625	379.501953125	-471.446044921875	-2805.064208984375	326.5726013183594	-279.152099609375	-2878.700927734375	310.2233276367188	-308.3861694335938	-3600.1591796875	349.2154541015625	-543.400634765625	-2796.9833984375	186.4311981201172	-282.986572265625	-2606.037353515625	229.7334289550781	-329.10595703125	-2835.1005859375	119.4743499755859	-330.22216796875	-2809.949462890625	100.7752685546875	-361.1502990722656	-2820.845703125	95.66314697265624	-308.2745361328125	-3671.572998046875	373.7391662597656	-523.0833129882812
4	0.015	-2986.72509765625	1547.643432617188	-568.2210693359375	-3074.664306640625	1525.178466796875	-258.9440612792969	-3019.536865234375	1065.27099609375	-575.4583129882812	-3047.128173828125	1081.768310546875	-281.022216796875	-2979.926025390625	1022.738098144531	-548.1080322265625	-3618.919677734375	402.1827697753906	-502.9421081542969	-3007.689453125	1036.6015625	-286.5221252441406	-3104.534423828125	958.018310546875	-599.6312866210938	-3104.8544921875	942.1895751953124	-260.8114624023438	-3151.150390625	1092.057495117188	-434.2757263183594	-3037.62060546875	774.363525390625	-558.6226806640625	-3492.70849609375	462.5103149414062	-526.1832885742188	-3109.88525390625	794.7510986328125	-595.4658203125	-3074.412353515625	678.0066528320312	-542.8037109375	-2624.828857421875	190.8672790527344	-259.1776428222656	-3403.17724609375	502.9705200195312	-560.8517456054688	-3149.98583984375	703.9741821289062	-572.6943969726562	-2933.992431640625	866.7302856445312	-273.8540649414062	-3552.650390625	161.8966979980469	-469.9638671875	-3000.37744140625	826.84033203125	-246.5230712890625	-2883.71435546875	777.48974609375	-273.4058532714844	-2954.737548828125	739.1497802734375	-259.6595153808594	-3190.858642578125	554.7982788085938	-538.3179321289062	-2853.860595703125	604.4705200195312	-292.8855895996094	-3366.312744140625	427.8810729980469	-545.8028564453125	-3461.080810546875	390.0908508300781	-543.3886108398438	-2808.65771484375	420.9722290039062	-266.0532836914062	-3595.525390625	210.6885223388672	-536.5534057617188	-2887.21435546875	401.8061828613281	-286.03271484375	-3643.235107421875	390.0332946777344	-469.7207336425781	-2782.0283203125	324.5443725585938	-278.0610961914062	-2855.621826171875	307.8785095214844	-307.6997375488281	-3579.558349609375	357.4277954101562	-542.0087280273438	-2770.032958984375	185.1783447265625	-281.1682434082031	-2580.68798828125	231.4149322509766	-328.5788879394531	-2807.949462890625	116.6122360229492	-328.4944763183594	-2783.18603515625	98.64030456542967	-359.0138854980469	-2793.974609375	93.85363006591795	-306.6939697265625	-3649.833251953125	383.3177490234375	-521.318115234375
